<?xml version="1.0" encoding="utf-8"?>
<!-- Svg Vector Icons : http://www.onlinewebfonts.com/icon -->
<!DOCTYPE svg PUBLIC "-//W3C//DTD SVG 1.1//EN" "http://www.w3.org/Graphics/SVG/1.1/DTD/svg11.dtd">
<svg version="1.1" xmlns="http://www.w3.org/2000/svg" xmlns:xlink="http://www.w3.org/1999/xlink" x="0px" y="0px" viewBox="0 0 1000 1000" enable-background="new 0 0 1000 1000" xml:space="preserve">
<metadata> Svg Vector Icons : http://www.onlinewebfonts.com/icon </metadata>
<g><path d="M500.1,345.4c-44,0-79.7,34.4-79.7,76.7c0,42.3,35.8,76.7,79.7,76.7c43.9,0,79.7-34.4,79.7-76.7C579.9,379.8,544.1,345.4,500.1,345.4z"/><path d="M500.1,217.7c-119.9,0-217.4,94.7-217.4,211c0,52.9,35.5,137.5,92.5,220.7c56.9,83,106.7,123.8,124.9,130.2c17.8-6.6,67.8-48.1,125-131.6c57-83.2,92.4-167.3,92.4-219.3C717.5,312.3,620,217.7,500.1,217.7z M500.1,537.1c-65.2,0-118-51.4-118-115c0-63.5,52.8-115,118-115c65.2,0,118,51.5,118,115C618.1,485.7,565.3,537.1,500.1,537.1z"/><path d="M500,10C229.4,10,10,229.4,10,500s219.4,490,490,490s490-219.4,490-490S770.6,10,500,10z M500.1,818.5c-72.7-6.1-255.7-252.3-255.7-389.8c0-137.7,114.5-249.3,255.7-249.3c141.2,0,255.7,111.6,255.7,249.3C755.8,566.3,569.5,814.2,500.1,818.5z"/></g>
</svg>